<?xml version="1.0" encoding="utf-8"?>
<!-- Generator: Adobe Illustrator 19.0.0, SVG Export Plug-In . SVG Version: 6.00 Build 0)  -->
<svg version="1.1" id="LOGO" xmlns="http://www.w3.org/2000/svg" xmlns:xlink="http://www.w3.org/1999/xlink" x="0px" y="0px"
	 viewBox="0 0 800 800" style="enable-background:new 0 0 800 800;" xml:space="preserve">
<style type="text/css">
	.st0{fill-rule:evenodd;clip-rule:evenodd;fill:#80C180;}
</style>
<path id="XMLID_1_" class="st0" d="M529.4,400h-66.6h-0.8H400c0,0-0.1,0-0.1-0.1l29.5-167.4c0,0,0-0.1,0.1-0.1h32.4h30.4l36.3,0
	c11.6,0,21.5-9,21.7-20.6c0.2-11.7-9.3-21.3-20.9-21.3h-29.7h-54.1h-8.8H395c0,0-0.1,0-0.1,0.1L358,399.9c0,0,0,0.1-0.1,0.1h-41.8
	c0,0,0,0-0.1,0l-234,377l0,0L148.5,400c0,0,0-0.1,0.1-0.1h41.8c0,0,0.1,0,0.1-0.1l66.5-376.9c0,0,0-0.1,0.1-0.1h96h71.5h12.3h8.8
	h83.7h0.1c104.1,0,188.5,84.4,188.5,188.5S633.5,400,529.4,400z"/>
</svg>
